{"title":"He Knows Youre Alone 1980 DVDRip Xvid BigPerm LKRG","uid":6952505,"size":755737668,"categoryP":"video","categoryS":"movies","magnet":"?xt=urn:btih:943f6010771f11bf0340a7a462e7fd530d091f51&amp;dn=He+Knows+Youre+Alone+1980+DVDRip+Xvid+BigPerm+LKRG&amp;tr=udp%3A%2F%2Ftracker.openbittorrent.com%3A80&amp;tr=udp%3A%2F%2Fopen.demonii.com%3A1337&amp;tr=udp%3A%2F%2Ftracker.coppersurfer.tk%3A6969&amp;tr=udp%3A%2F%2Fexodus.desync.com%3A6969","seeders":2,"leechers":0,"uploader":".BONE.","files":2,"time":1326454623,"description":"\nPLOT\n\nA young bride-to-be is being stalked upon by a serial killer. She gets help from a\nformer lover, but will they manage to escape?\n\nEncoded By .......: BigPerm\nRuntime ..........: 1h 33mn\nFile Size ........: 721 MB\nResolution .......: 672 x 368 &lt;a href=&quot;\nhttp://www.imdb.com/title/tt0080850/&quot; rel=&quot;nofollow&quot; target=&quot;_NEW&quot;&gt;\nhttp://www.imdb.com/title/tt0080850/&lt;/a&gt;\nGenre ............: Horror,Thriller\nLanguage .........: English\nSubtitles ........: None\nVideo\nID : 0\nFormat : MPEG-4 Visual\nFormat profile : Advanced Simple@L5\nFormat settings, BVOP : Yes\nFormat settings, QPel : No\nFormat settings, GMC : No warppoints\nFormat settings, Matrix : Default (H.263)\nMuxing mode : Packed bitstream\nCodec ID : XVID\nCodec ID/Hint : XviD\nDuration : 1h 33mn\nBit rate : 842 Kbps\nWidth : 672 pixels\nHeight : 368 pixels\nDisplay aspect ratio : 16:9\nFrame rate : 23.976 fps\nColor space : YUV\nChroma subsampling : 4:2:0\nBit depth : 8 bits\nScan type : Progressive\nCompression mode : Lossy\nBits/(Pixel*Frame) : 0.142\nStream size : 564 MiB (78%)\nWriting library : XviD 64\nAudio\nID : 1\nFormat : AC-3\nFormat/Info : Audio Coding 3\nMode extension : CM (complete main)\nCodec ID : 2000\nDuration : 1h 33mn\nBit rate mode : Constant\nBit rate : 224 Kbps\nChannel(s) : 2 channels\nChannel positions : Front: L R\nSampling rate : 48.0 KHz\nBit depth : 16 bits\nCompression mode : Lossy\nStream size : 150 MiB (21%)\nAlignment : Split accross interleaves\nInterleave, duration : 42 ms (1.00 video frame)\nInterleave, preload duration : 500 ms","torrent":{"xt":"urn:btih:943f6010771f11bf0340a7a462e7fd530d091f51","amp;dn":"He+Knows+Youre+Alone+1980+DVDRip+Xvid+BigPerm+LKRG","amp;tr":["udp%3A%2F%2Ftracker.openbittorrent.com%3A80","udp%3A%2F%2Fopen.demonii.com%3A1337","udp%3A%2F%2Ftracker.coppersurfer.tk%3A6969","udp%3A%2F%2Fexodus.desync.com%3A6969"],"infoHash":"943f6010771f11bf0340a7a462e7fd530d091f51","infoHashBuffer":{"type":"Buffer","data":[148,63,96,16,119,31,17,191,3,64,167,164,98,231,253,83,13,9,31,81]},"announce":[],"urlList":[]}}